<?xml version="1.0" encoding="utf-8"?>
<!-- Generator: Adobe Illustrator 26.0.1, SVG Export Plug-In . SVG Version: 6.00 Build 0)  -->
<svg version="1.1" id="Layer_1" xmlns="http://www.w3.org/2000/svg" xmlns:xlink="http://www.w3.org/1999/xlink" x="0px" y="0px"
	 viewBox="0 0 900 900" style="enable-background:new 0 0 900 900;" xml:space="preserve">
<style type="text/css">
	.st0{fill:#090F1F;}
</style>
<g id="Layer_2_00000075866094774910330620000006061452185013857211_">
	<g id="Logo">
		<path className="st0" d="M872.3,605c0,0.5-0.1,1-0.2,1.5c-0.1,0.2-0.1,0.3-0.2,0.5c-11.9,31.9-27.4,62.4-46.1,90.8l-0.1,0.1
			c-0.9,1.3-2.5,2.1-4.1,2.1H450c-138.1,0-250-111.9-250-250s111.9-250,250-250h371.5c1.6,0,3.2,0.8,4.1,2.1l0.1,0.1
			c18.8,28.4,34.3,58.8,46.1,90.7c0.1,0.2,0.1,0.3,0.2,0.5c0.1,0.5,0.2,1,0.2,1.5c0,2.8-2.2,5-5,5H450c-82.8,0-150,67.1-150.1,149.9
			c0,82.8,67.1,150,149.9,150.1c0,0,0.1,0,0.1,0h417.3C870,600,872.3,602.2,872.3,605C872.3,605,872.3,605,872.3,605z"/>
		<path className="st0" d="M900,450c0,15.1-0.7,30.2-2.3,45.3c0,0.1,0,0.3,0,0.4c-0.4,2.5-2.5,4.3-4.9,4.3H450c-27.6,0-50-22.4-50-50
			s22.4-50,50-50h442.8c2.5,0,4.6,1.8,4.9,4.3c0,0.1,0,0.3,0,0.4C899.2,419.8,900,434.9,900,450z"/>
		<path className="st0" d="M723.4,805c0,1.5-0.7,2.9-1.8,3.8c-0.1,0.1-0.3,0.2-0.4,0.3c-71.2,53.9-156.8,85.3-246,90.2
			C209.6,914-11.8,694.6,0.5,428.9C11.5,190.1,208.6,0,450,0c97.9-0.2,193.1,31.8,271.1,90.8c0.2,0.1,0.3,0.2,0.4,0.3
			c2.1,1.8,2.4,4.9,0.6,7c-0.9,1.1-2.3,1.8-3.8,1.8H450c-193.3,0-350,156.7-350,350s156.7,350,350,350h268.4
			C721.1,800,723.4,802.2,723.4,805z"/>
	</g>
</g>
</svg>
